<?xml version="1.0" standalone="no"?>
<!DOCTYPE svg PUBLIC "-//W3C//DTD SVG 20010904//EN"
 "http://www.w3.org/TR/2001/REC-SVG-20010904/DTD/svg10.dtd">
<svg version="1.0" xmlns="http://www.w3.org/2000/svg"
 width="1080.000000pt" height="1080.000000pt" viewBox="0 0 1080.000000 1080.000000"
 preserveAspectRatio="xMidYMid meet">
<metadata>
Created by potrace 1.14, written by Peter Selinger 2001-2017
</metadata>
<g transform="translate(0.000000,1080.000000) scale(0.100000,-0.100000)"
fill="#000000" stroke="none">
<path d="M0 9971 l0 -828 40 -18 c48 -22 95 -16 177 21 87 39 139 49 240 46
83 -2 92 -5 99 -24 5 -16 -2 -29 -31 -56 -44 -42 -74 -103 -75 -152 -1 -46
-55 -199 -80 -224 -12 -13 -38 -21 -75 -24 l-56 -5 -57 61 c-31 33 -66 63 -77
66 -51 14 -74 14 -79 0 -3 -8 -1 -14 4 -14 6 0 10 -12 10 -27 0 -23 42 -93 62
-101 13 -6 68 -60 68 -67 0 -12 152 -155 197 -186 23 -16 43 -32 45 -37 6 -15
324 -232 348 -238 3 0 23 -8 45 -18 246 -105 315 -125 524 -151 85 -11 286 -6
351 9 14 3 52 8 85 10 82 7 124 15 163 33 18 8 44 16 57 17 13 1 35 10 49 19
14 9 32 17 41 17 8 0 15 4 15 9 0 5 19 18 43 29 23 11 54 32 69 46 15 14 34
26 43 26 9 0 13 5 10 10 -4 6 11 28 32 49 22 21 42 45 46 54 3 9 11 17 17 17
5 0 10 6 10 14 0 8 6 21 13 28 20 22 34 61 30 87 -2 14 -1 22 3 19 12 -13 44
34 54 78 6 26 20 58 30 72 11 13 20 30 20 38 0 7 6 14 13 17 8 3 6 10 -8 21
-19 14 -19 15 -1 16 11 0 16 5 13 14 -3 7 0 19 6 25 8 8 7 11 -6 11 -26 0 -18
50 10 61 26 10 30 41 8 59 -22 18 -19 24 18 43 19 9 25 16 15 16 -20 1 -39 77
-26 104 5 9 6 23 2 29 -4 7 -9 26 -10 43 -1 16 -9 56 -18 89 -8 32 -13 62 -11
66 3 4 -2 10 -10 14 -8 3 -15 14 -15 25 0 11 -4 23 -10 26 -5 3 -10 14 -10 23
0 23 -54 136 -95 197 -18 28 -47 81 -64 117 -16 36 -34 69 -40 72 -5 4 -20 27
-33 53 -13 25 -40 64 -60 87 -21 22 -36 41 -34 43 1 2 -16 23 -40 47 -23 24
-54 66 -70 94 -15 27 -39 57 -53 65 -30 18 -119 110 -145 149 -10 15 -26 30
-37 33 -11 4 -17 10 -14 15 3 5 -1 12 -9 17 -8 4 -38 35 -66 68 -29 33 -75 85
-103 115 -29 31 -68 75 -87 100 -19 24 -49 60 -66 79 -17 20 -34 44 -37 54 -6
16 -49 17 -712 17 l-705 0 0 -829z m960 44 c10 -12 10 -21 1 -41 -9 -21 -17
-25 -43 -22 -39 4 -49 30 -22 59 21 23 47 25 64 4z m651 -109 c139 -60 135
-200 -8 -339 -32 -30 -49 -39 -89 -43 -48 -5 -51 -3 -121 53 -64 51 -73 62
-73 91 0 74 79 170 184 222 69 35 64 34 107 16z m357 -436 c33 -31 28 -64 -20
-116 -63 -69 -122 -106 -161 -102 -28 3 -32 7 -35 36 -4 36 27 95 75 148 54
58 102 70 141 34z m-1047 -190 c22 -12 26 -59 7 -78 -7 -7 -21 -12 -33 -12
-28 0 -45 19 -45 50 0 44 30 61 71 40z m329 -169 c18 -35 12 -51 -19 -51 -36
0 -67 36 -49 57 16 19 56 16 68 -6z m-380 -126 c0 -24 -31 -51 -44 -38 -11 12
-6 41 10 57 20 20 34 12 34 -19z m-110 -130 c0 -7 5 -15 12 -17 22 -8 -11 -70
-60 -115 -26 -24 -50 -43 -54 -43 -4 0 -24 -11 -45 -25 -43 -30 -72 -29 -84 2
-6 16 -3 27 9 39 9 9 26 44 37 78 17 53 25 64 60 81 46 23 125 23 125 0z"/>
<path d="M8350 9820 c0 -5 9 -10 19 -10 11 0 26 -3 34 -6 8 -3 17 2 20 10 5
13 -1 16 -33 16 -22 0 -40 -4 -40 -10z"/>
<path d="M8440 9820 c0 -11 13 -14 44 -10 10 1 23 -4 27 -12 7 -10 9 -10 9 0
0 14 36 17 44 3 6 -9 -42 -58 -51 -52 -3 2 -20 -8 -39 -22 -37 -30 -86 -39
-64 -12 15 18 -1 20 -19 3 -10 -11 -11 -9 -5 5 5 15 2 17 -21 13 -15 -3 -33
-10 -41 -17 -8 -6 -17 -9 -21 -5 -3 3 -2 6 4 6 6 0 13 7 17 15 7 19 -8 19 -28
0 -9 -9 -17 -11 -21 -5 -3 5 -15 6 -28 1 -34 -13 -39 -13 -47 -1 -5 7 -11 6
-21 -6 -9 -12 -10 -15 -1 -10 6 4 12 3 12 -1 0 -5 -10 -13 -22 -18 -17 -8 -25
-22 -30 -57 -3 -26 -16 -60 -27 -74 -12 -15 -21 -37 -21 -50 0 -13 -5 -24 -11
-24 -6 0 -9 7 -5 15 11 29 -12 14 -33 -21 -25 -41 -46 -170 -37 -229 8 -57 68
-195 115 -263 95 -138 330 -341 461 -399 65 -28 96 -35 175 -37 137 -4 228 16
364 82 66 32 179 211 248 392 51 133 9 278 -130 445 -56 67 -57 68 -184 154
-84 57 -153 90 -153 72 0 -3 14 -15 30 -24 36 -22 37 -30 5 -47 -13 -7 -23
-17 -22 -23 1 -5 -3 -11 -10 -14 -7 -3 -10 5 -9 21 2 17 -1 23 -10 19 -16 -6
-19 13 -4 22 6 4 8 10 5 15 -3 5 -15 0 -26 -11 -11 -11 -22 -19 -24 -17 -9 9
-9 43 0 44 6 0 21 5 34 11 25 10 24 10 -21 36 -24 15 -76 37 -114 48 -38 12
-88 27 -112 35 -49 16 -182 19 -182 4z m302 -65 c4 -5 11 -10 15 -10 15 -1 48
-24 35 -25 -7 0 -10 -4 -7 -10 3 -5 1 -10 -4 -10 -6 0 -11 6 -11 13 0 9 -2 9
-9 -1 -11 -18 -86 1 -95 24 -3 8 -11 12 -17 8 -8 -4 -9 -3 -5 4 10 16 33 15
39 0 4 -9 6 -8 6 3 1 17 41 21 53 4z m260 -167 c-7 -7 -12 -8 -12 -2 0 14 12
26 19 19 2 -3 -1 -11 -7 -17z m-152 2 c0 -5 -5 -10 -11 -10 -5 0 -7 5 -4 10 3
6 8 10 11 10 2 0 4 -4 4 -10z m210 -31 c0 -5 -7 -9 -15 -9 -15 0 -20 12 -9 23
8 8 24 -1 24 -14z m-40 1 c0 -5 -5 -10 -11 -10 -5 0 -7 5 -4 10 3 6 8 10 11
10 2 0 4 -4 4 -10z m94 -34 c-6 -15 -51 -18 -59 -5 -3 4 5 15 17 23 24 17 51
5 42 -18z m-274 0 c0 -3 -4 -8 -10 -11 -5 -3 -10 -1 -10 4 0 6 5 11 10 11 6 0
10 -2 10 -4z m-760 -86 c0 -5 -4 -10 -10 -10 -5 0 -10 5 -10 10 0 6 5 10 10
10 6 0 10 -4 10 -10z m64 -98 c2 -4 -7 -12 -20 -19 -24 -11 -41 -2 -29 17 7
12 42 13 49 2z m173 -12 c68 -21 128 -49 121 -56 -3 -2 -33 5 -67 16 -34 10
-68 17 -75 14 -8 -3 -28 2 -45 10 -16 9 -42 16 -56 16 -15 0 -24 4 -20 10 10
16 75 11 142 -10z m458 -298 c-3 -3 -14 -7 -25 -9 -13 -2 -18 2 -14 11 3 8 14
12 25 9 11 -3 17 -8 14 -11z m350 -12 c3 -6 -1 -7 -9 -4 -18 7 -21 14 -7 14 6
0 13 -4 16 -10z m30 -90 c3 -5 -1 -10 -9 -10 -8 0 -18 5 -21 10 -3 6 1 10 9
10 8 0 18 -4 21 -10z"/>
<path d="M2505 8490 c3 -5 13 -10 21 -10 8 0 12 5 9 10 -3 6 -13 10 -21 10 -8
0 -12 -4 -9 -10z"/>
<path d="M10422 7420 c-13 -5 -42 -23 -65 -38 -33 -23 -57 -30 -116 -35 -83
-7 -102 -19 -107 -69 -7 -63 -14 -76 -50 -93 -28 -13 -41 -14 -66 -6 -59 21
-84 14 -117 -31 -35 -48 -38 -72 -15 -149 12 -39 15 -73 10 -121 -10 -112 -19
-120 -75 -59 -24 26 -51 43 -81 51 -52 14 -135 55 -145 70 -12 19 -8 80 6 97
8 8 30 26 50 39 39 24 58 71 33 81 -25 9 -58 -5 -119 -51 -33 -25 -65 -46 -70
-46 -13 0 -204 -194 -268 -271 -62 -76 -142 -209 -163 -272 -9 -29 -20 -56
-24 -62 -32 -41 -61 -388 -40 -482 6 -25 13 -70 15 -101 4 -38 11 -62 24 -72
31 -26 43 -57 26 -64 -17 -6 -20 -32 -4 -41 6 -4 17 1 24 11 14 18 14 18 15
-3 0 -12 3 -29 6 -37 5 -12 2 -15 -10 -10 -16 6 -76 -16 -76 -28 0 -12 38 -10
45 2 3 6 17 10 31 10 17 0 24 -5 24 -20 0 -14 -5 -18 -17 -13 -10 3 -14 2 -10
-3 13 -14 90 -15 99 -1 5 8 8 5 8 -10 0 -14 5 -20 18 -19 9 2 17 8 17 14 0 7
5 11 10 10 6 -2 10 -10 10 -18 0 -8 8 -14 18 -14 9 1 14 -2 11 -7 -7 -12 41
-22 70 -15 13 3 37 -1 52 -9 16 -8 39 -15 52 -15 12 0 22 -4 22 -10 0 -5 11
-10 25 -10 16 0 25 -6 25 -15 0 -11 12 -15 45 -15 25 0 45 -4 45 -9 0 -15 49
-19 67 -5 10 7 32 14 49 14 31 0 174 33 217 49 12 5 42 17 67 26 103 40 200
86 260 125 25 16 63 38 85 50 22 12 55 34 74 48 41 33 84 64 136 99 22 14 45
31 50 38 6 6 47 35 93 65 l82 54 0 613 0 613 -41 0 c-52 0 -74 12 -103 58 -50
80 -173 138 -234 112z m-34 -278 c55 -42 32 -81 -28 -45 -31 18 -48 52 -35 73
7 11 14 8 63 -28z m-785 -337 c20 -8 41 -24 47 -34 15 -29 12 -77 -6 -96 -15
-14 -19 -14 -47 2 -31 18 -86 110 -87 145 0 21 31 29 46 11 6 -7 27 -20 47
-28z m132 -195 c9 -15 -3 -30 -20 -24 -23 9 -27 34 -5 34 10 0 22 -4 25 -10z
m175 -45 c18 -21 5 -45 -24 -45 -25 0 -44 30 -31 50 9 15 41 12 55 -5z m495
-96 c7 -20 -7 -38 -27 -39 -11 0 -26 33 -21 48 7 20 41 14 48 -9z m-625 -135
c-16 -18 -36 -18 -44 1 -3 8 4 21 17 30 19 13 22 13 30 -1 5 -9 4 -21 -3 -30z
m391 -119 c38 -20 83 -83 99 -139 11 -41 10 -47 -9 -75 -25 -35 -73 -51 -116
-40 -16 5 -51 31 -77 59 -39 41 -48 58 -48 87 0 29 8 43 48 79 52 49 60 51
103 29z m-262 -281 c46 -42 52 -51 49 -82 -7 -80 -68 -60 -122 40 -26 48 -29
58 -17 72 21 25 34 20 90 -30z"/>
<path d="M9845 7257 c-65 -29 -95 -49 -95 -64 0 -19 35 -16 78 6 20 10 43 16
51 13 9 -3 11 0 6 8 -5 8 -4 11 3 7 27 -18 55 27 28 45 -14 10 -12 10 -71 -15z"/>
<path d="M5050 6608 c0 -113 -20 -1125 -26 -1335 l-6 -223 81 0 c45 0 81 -4
81 -10 0 -5 17 -12 38 -16 20 -4 46 -11 56 -16 14 -8 21 -6 28 6 6 11 24 16
61 16 42 0 58 6 87 29 35 29 35 30 33 105 -1 41 2 78 8 81 12 8 11 48 -5 123
-7 34 -10 62 -7 62 3 0 6 19 6 43 1 65 24 134 47 140 11 3 17 10 13 16 -3 7 2
11 14 11 12 0 21 4 21 8 0 5 24 10 53 10 90 3 131 14 155 39 12 13 22 31 22
39 0 9 5 25 11 36 9 17 7 28 -10 59 -16 27 -24 63 -28 124 -5 78 -8 85 -27 85
-25 0 -250 21 -253 23 0 1 -4 19 -7 39 -5 30 -1 42 19 66 14 17 36 33 50 36
15 4 23 11 19 17 -4 8 11 10 47 8 30 -2 63 0 74 4 11 4 62 3 114 -2 73 -7 102
-5 127 5 43 18 52 37 60 121 3 37 8 71 10 75 3 4 -4 11 -14 17 -16 8 -18 20
-15 86 2 54 0 77 -9 80 -11 3 -857 45 -910 45 -15 0 -18 -9 -18 -52z"/>
<path d="M4165 6551 l-460 -78 -24 -49 c-13 -27 -23 -62 -22 -79 1 -16 52
-335 114 -709 l113 -678 49 -19 c92 -35 160 -57 180 -58 77 -3 101 0 159 14
36 9 74 14 85 10 11 -3 22 -2 24 2 3 5 34 10 68 11 35 2 66 6 69 11 7 11 50
20 135 27 38 3 74 8 80 12 10 6 116 23 148 23 9 0 25 12 34 25 11 17 23 24 35
21 32 -9 43 15 41 89 0 38 -4 89 -7 114 -4 25 -8 61 -10 80 -2 19 -6 42 -9 50
-3 8 -8 33 -11 55 -2 22 -11 83 -19 135 -8 52 -15 102 -15 110 0 33 -25 166
-34 184 -14 25 -17 65 -7 72 5 3 1 16 -8 30 -13 21 -14 31 -4 65 8 25 9 45 3
52 -18 23 -31 76 -21 83 6 4 6 10 1 17 -6 7 -9 32 -8 57 1 25 -2 48 -7 51 -9
6 -29 86 -62 245 -6 26 -105 104 -131 103 -10 -1 -226 -36 -479 -78z m169
-373 c-3 -4 9 -7 27 -6 27 3 33 -1 39 -23 12 -44 133 -829 129 -834 -3 -2 -59
-7 -125 -11 l-120 -7 -18 99 c-10 54 -24 115 -31 134 -7 19 -14 42 -13 50 0
34 -10 98 -16 109 -12 18 -8 155 4 159 6 2 2 15 -10 32 -11 15 -20 33 -20 38
0 5 -6 21 -13 35 -27 52 4 160 53 184 14 7 19 13 13 13 -7 0 -13 5 -13 10 0 6
15 10 33 10 17 0 38 4 45 8 17 11 43 11 36 0z"/>
<path d="M6126 5829 c-76 -434 -137 -791 -135 -793 2 -1 40 -8 84 -14 44 -7
85 -18 90 -26 13 -17 180 -37 211 -26 12 5 24 6 27 4 12 -12 47 18 47 40 0 13
8 38 17 57 10 19 19 57 20 84 3 53 9 110 12 110 1 0 3 21 5 46 2 25 8 54 14
65 7 13 7 25 0 38 -8 14 -5 21 11 32 12 9 21 21 21 27 0 7 13 26 29 43 29 31
99 53 123 38 6 -4 42 -9 80 -11 76 -5 123 13 112 42 -4 8 -1 21 5 29 6 7 8 16
5 19 -3 3 -2 12 2 19 12 20 4 81 -13 100 -12 14 -14 31 -10 77 l6 59 -129 32
c-84 21 -130 37 -130 45 0 7 5 15 12 17 6 2 13 18 14 35 3 41 33 82 61 83 12
0 25 5 28 10 4 6 12 7 18 3 7 -5 36 -8 65 -7 28 0 52 -2 52 -6 0 -4 14 -7 31
-8 17 0 36 -6 44 -12 7 -6 19 -10 27 -9 7 2 32 -1 54 -5 64 -11 117 7 133 46
8 18 14 43 12 55 -1 12 3 24 9 28 16 10 12 43 -7 54 -10 6 -12 11 -5 11 16 0
15 25 -1 39 -11 9 -12 23 -4 67 5 30 7 57 5 60 -3 2 -200 45 -439 94 -239 50
-443 92 -454 95 -20 4 -27 -32 -159 -786z"/>
<path d="M7491 6326 c-24 -18 -47 -39 -51 -47 -12 -22 -470 -1316 -470 -1327
0 -6 22 -37 49 -70 48 -57 52 -60 180 -107 72 -27 131 -52 131 -56 0 -4 13 -7
29 -7 16 1 42 -8 58 -20 16 -11 45 -23 66 -27 20 -4 40 -11 43 -16 3 -5 10 -6
16 -3 6 4 14 1 18 -6 5 -7 16 -14 27 -15 10 -1 32 -7 48 -14 17 -6 55 -21 85
-33 30 -11 60 -27 66 -34 10 -13 33 -20 89 -28 17 -2 42 -9 57 -16 24 -11 32
-9 74 15 25 15 49 36 51 46 3 11 14 19 24 19 12 0 19 7 19 19 0 10 8 22 17 25
15 6 15 8 3 16 -12 8 -12 10 3 16 9 3 17 17 17 29 0 13 5 27 10 30 6 3 10 14
10 23 0 10 9 35 20 57 11 22 20 46 20 55 0 27 32 114 52 139 10 13 18 40 18
61 0 24 7 43 20 55 11 10 20 31 20 46 0 15 4 30 9 33 4 3 6 16 4 29 -3 14 2
29 11 36 9 8 16 19 16 25 0 6 6 22 13 36 7 14 19 45 26 70 7 25 19 59 28 76 8
17 16 39 18 50 2 10 4 21 6 24 1 3 3 10 4 15 3 16 16 48 26 68 5 10 7 22 4 26
-2 5 7 26 21 47 15 21 28 53 29 71 2 18 7 38 11 44 3 6 3 14 -2 18 -15 10 -34
60 -28 74 7 20 -53 144 -73 150 -10 3 -215 75 -457 161 -241 86 -439 156 -440
156 0 0 -21 -15 -45 -34z m507 -520 c16 -15 18 -7 -166 -508 -70 -191 -131
-348 -136 -348 -4 0 -46 18 -92 39 l-84 40 7 33 c3 18 12 36 18 40 7 4 16 20
19 35 4 16 21 63 38 105 17 43 28 84 24 93 -3 8 -1 15 4 15 6 0 10 5 10 11 0
6 8 23 18 37 10 15 19 43 21 62 1 19 12 44 22 56 14 15 21 39 23 85 3 71 12
99 31 99 8 0 11 11 9 31 -3 24 0 32 16 36 11 3 20 10 19 17 -3 26 2 35 24 38
12 2 21 9 19 16 -1 8 1 11 5 9 5 -2 17 -1 28 3 21 7 99 -20 123 -44z"/>
<path d="M2765 6181 l-450 -157 -5 -74 c-5 -74 -5 -75 96 -350 90 -245 307
-832 363 -982 l22 -56 67 -12 c37 -6 77 -18 89 -26 23 -15 68 -20 60 -6 -3 4
17 8 44 8 28 1 62 10 81 21 18 11 53 21 78 22 29 1 52 9 66 22 12 11 25 19 30
18 17 -5 129 25 139 37 9 10 71 35 100 40 29 4 55 18 55 28 0 7 6 13 14 13 22
0 76 24 76 34 0 5 11 9 25 9 32 0 96 30 114 54 21 28 23 94 3 135 -9 20 -15
44 -14 53 2 9 -4 31 -13 48 -9 17 -13 35 -10 40 4 6 0 13 -8 16 -8 3 -31 48
-52 100 -21 51 -43 94 -49 94 -8 0 -273 -73 -342 -95 -9 -3 -8 -23 2 -77 8
-40 17 -89 20 -109 l6 -36 -119 -31 c-66 -18 -122 -32 -125 -32 -2 0 -11 19
-18 43 -8 23 -17 44 -21 47 -3 3 -21 46 -38 95 -18 50 -36 98 -41 107 -6 10
-10 24 -10 32 0 8 -4 25 -9 38 -5 13 -9 27 -9 31 -1 4 -8 15 -17 23 -8 9 -15
23 -15 33 0 9 -6 23 -12 29 -10 10 -10 14 0 21 13 8 7 41 -7 41 -5 0 -16 28
-26 63 -10 34 -27 75 -38 90 -10 15 -16 34 -13 42 3 9 1 26 -4 40 -6 16 -5 36
4 62 12 33 17 38 41 35 18 -2 26 1 23 10 -4 12 78 47 114 48 9 0 18 5 20 11 2
5 23 -24 46 -65 l43 -75 36 13 c30 10 42 10 65 -1 15 -8 28 -19 28 -25 0 -7 4
-7 13 0 7 6 23 8 36 5 14 -4 32 1 49 14 15 11 41 23 57 27 17 4 38 16 47 26
20 22 42 103 28 108 -5 2 -6 10 -3 18 3 8 1 14 -5 14 -5 0 -10 10 -9 23 1 48
-24 137 -47 166 -6 7 -22 47 -36 88 l-26 75 -74 29 c-41 16 -77 29 -80 28 -3
0 -207 -72 -455 -158z"/>
<path d="M8990 5580 c0 -5 5 -10 11 -10 5 0 7 5 4 10 -3 6 -8 10 -11 10 -2 0
-4 -4 -4 -10z"/>
<path d="M890 5381 c-85 -22 -103 -33 -175 -100 -121 -113 -186 -218 -263
-423 -41 -108 -56 -158 -54 -170 1 -5 -2 -8 -7 -8 -5 0 -7 -17 -4 -38 3 -20
-1 -58 -8 -82 -19 -70 -19 -74 -1 -90 10 -8 23 -33 30 -55 25 -79 65 -175 74
-175 4 0 8 -4 8 -10 0 -5 -6 -10 -14 -10 -8 0 -18 -4 -21 -10 -4 -6 1 -7 11
-3 11 4 15 2 11 -4 -4 -6 0 -16 8 -23 13 -10 15 -9 15 10 0 19 5 16 40 -22 22
-23 40 -46 40 -50 0 -4 14 -16 31 -28 78 -57 265 -96 449 -94 83 0 102 4 146
27 73 37 171 138 226 232 35 59 55 110 76 195 37 145 45 191 33 209 -6 10 -11
2 -16 -28 -8 -46 -11 -48 -42 -26 -12 9 -27 14 -34 13 -6 -2 -14 3 -17 11 -3
8 0 11 7 7 6 -4 11 -2 11 4 0 6 5 8 11 4 8 -4 9 1 4 16 -6 20 -5 21 14 11 28
-15 27 -4 -1 20 -13 10 -18 18 -11 19 7 0 10 7 7 15 -9 23 1 18 34 -15 l30
-30 10 48 c6 28 7 97 2 174 -7 107 -12 135 -35 185 -32 67 -46 51 -16 -18 25
-54 13 -73 -26 -41 -16 13 -43 32 -61 43 -37 24 -66 67 -38 56 19 -7 22 9 4
17 -10 5 -10 7 0 12 18 8 15 18 -14 47 l-25 25 23 -4 c13 -2 17 -2 11 2 -7 3
-13 12 -13 19 0 8 -7 21 -16 29 -8 9 -13 16 -9 16 4 0 -1 7 -10 16 -13 14 -14
19 -3 25 9 6 6 9 -11 9 -14 0 -32 7 -41 15 -15 14 -24 14 -71 1 -37 -9 -56
-10 -61 -3 -3 6 -26 10 -50 9 -31 0 -38 2 -23 8 19 7 18 9 -8 19 -38 15 -89
13 -167 -8z m116 -38 c-10 -10 -19 5 -10 18 6 11 8 11 12 0 2 -7 1 -15 -2 -18z
m-81 -51 c6 -4 11 -18 12 -32 3 -23 2 -23 -11 -7 -7 9 -18 17 -24 17 -6 0 -9
7 -6 15 7 17 14 18 29 7z m49 -129 c14 -96 17 -140 11 -175 -9 -51 -25 -49
-19 2 3 22 -1 59 -8 83 -6 23 -11 53 -10 67 1 14 -2 37 -8 53 -8 25 -7 26 10
17 11 -6 20 -25 24 -47z m536 -261 c0 -4 -5 -13 -11 -19 -9 -9 -7 -11 8 -7 16
4 21 0 25 -20 3 -14 2 -26 -3 -26 -4 0 -6 -13 -4 -29 3 -24 0 -29 -16 -28 -11
1 -17 7 -15 14 3 7 2 13 -3 13 -15 0 -22 79 -9 95 14 16 28 19 28 7z m-95
-222 c3 -5 1 -10 -4 -10 -6 0 -11 5 -11 10 0 6 2 10 4 10 3 0 8 -4 11 -10z
m-57 -18 c2 -7 -2 -10 -12 -6 -9 3 -16 11 -16 16 0 13 23 5 28 -10z m-492
-109 c-11 -11 -17 4 -9 23 7 18 8 18 11 1 2 -10 1 -21 -2 -24z m619 -23 c-3
-5 -12 -7 -20 -3 -21 7 -19 13 6 13 11 0 18 -4 14 -10z m-35 -20 c0 -5 -4 -10
-10 -10 -5 0 -10 5 -10 10 0 6 5 10 10 10 6 0 10 -4 10 -10z m17 -27 c-4 -3
-2 -12 5 -20 8 -11 7 -12 -5 -7 -22 8 -30 34 -10 34 9 0 13 -3 10 -7z m-23
-33 c28 -10 31 -17 16 -40 -8 -13 -12 -11 -30 7 -18 20 -27 43 -16 43 3 0 16
-4 30 -10z m-467 -232 c-3 -8 -6 -5 -6 6 -1 11 2 17 5 13 3 -3 4 -12 1 -19z
m-72 -58 c-6 -9 -9 -9 -16 1 -10 17 0 34 13 21 6 -6 7 -16 3 -22z"/>
<path d="M1454 5198 c3 -13 6 -29 6 -35 0 -7 7 -13 15 -13 18 0 18 -1 4 39
-12 35 -35 43 -25 9z"/>
<path d="M415 4240 c-3 -6 1 -7 9 -4 18 7 21 14 7 14 -6 0 -13 -4 -16 -10z"/>
<path d="M530 4150 c0 -5 5 -10 11 -10 5 0 7 5 4 10 -3 6 -8 10 -11 10 -2 0
-4 -4 -4 -10z"/>
<path d="M896 1679 c-10 -6 -54 -40 -97 -75 -44 -35 -83 -64 -87 -64 -4 0 -32
-20 -62 -45 -60 -50 -83 -54 -151 -29 -32 11 -64 14 -114 10 -100 -8 -119 -14
-164 -52 -30 -26 -41 -44 -46 -76 -11 -66 -31 -103 -91 -170 -78 -87 -81 -100
-44 -156 44 -66 37 -134 -16 -163 -23 -12 -24 -15 -24 -143 l1 -131 41 -25
c43 -27 126 -143 131 -183 2 -21 -1 -22 -83 -22 l-85 0 -3 -94 c-2 -69 1 -98
11 -110 29 -33 38 -60 27 -81 -6 -11 -17 -20 -25 -20 -9 0 -15 -10 -15 -25 l0
-25 406 0 406 0 29 31 c29 31 32 32 97 27 46 -3 85 -14 121 -32 52 -26 56 -26
255 -26 l203 0 13 42 c7 24 16 52 20 63 17 42 22 61 27 95 3 19 15 58 28 85
22 49 58 188 71 275 3 25 8 54 10 65 2 11 6 74 10 140 6 137 -6 206 -54 322
-17 39 -28 73 -26 76 2 2 -19 48 -46 103 -58 114 -104 168 -130 154 -23 -12
-40 -76 -40 -151 0 -87 -18 -113 -73 -106 -22 3 -46 12 -55 20 -13 13 -13 21
2 63 20 59 20 103 1 131 -12 16 -28 21 -80 25 -107 7 -155 61 -174 196 -5 41
-12 76 -15 79 -11 11 -92 13 -110 2z m-456 -604 c0 -31 -39 -49 -89 -41 -40 6
-38 4 -46 38 l-7 26 71 1 c69 0 71 0 71 -24z m481 -595 c23 -13 25 -33 4 -50
-30 -25 -79 16 -54 46 14 17 24 17 50 4z m-520 -306 c14 -17 5 -40 -24 -58
-12 -8 -21 -5 -36 8 -25 23 -26 30 -5 50 20 20 48 20 65 0z m-211 -99 c0 -18
-21 -24 -43 -13 -14 7 -16 13 -7 23 13 16 50 8 50 -10z"/>
<path d="M10200 1558 c-46 -17 -119 -69 -126 -90 -12 -38 -69 -83 -130 -102
-126 -39 -184 -87 -165 -138 4 -13 9 -48 10 -78 2 -45 -2 -61 -20 -84 -30 -38
-76 -56 -144 -56 -31 0 -65 -4 -75 -10 -10 -5 -30 -41 -46 -80 -33 -85 -29
-103 46 -230 27 -47 52 -98 54 -115 3 -16 8 -55 13 -85 17 -115 1 -132 -76
-80 -55 37 -113 54 -166 47 -52 -7 -199 25 -225 48 -24 22 -44 89 -36 121 4
13 26 46 51 74 25 28 45 54 46 58 0 4 3 25 5 47 11 79 3 104 -23 70 -8 -11
-18 -19 -23 -18 -12 3 -135 -118 -153 -152 -9 -17 -32 -45 -51 -63 -19 -18
-51 -68 -72 -110 -21 -42 -51 -99 -67 -127 -59 -100 -75 -132 -122 -245 -26
-63 -51 -123 -56 -132 -5 -10 -9 -20 -9 -23 0 -3 486 -5 1080 -5 l1080 0 0
721 0 722 -37 -6 c-21 -4 -62 -13 -92 -21 -67 -19 -101 -7 -173 60 -26 25 -53
42 -58 39 -6 -3 -10 -1 -10 4 0 6 -8 11 -19 11 -10 0 -36 7 -57 16 -46 20
-119 25 -154 12z m24 -454 c16 -5 34 -17 40 -27 9 -15 7 -22 -11 -37 -46 -37
-153 12 -153 70 0 38 7 41 54 20 22 -10 54 -22 70 -26z m-1050 -791 c11 -7 39
-13 62 -13 58 0 104 -54 104 -122 -1 -54 -21 -71 -72 -63 -37 6 -53 17 -111
78 -76 80 -88 108 -62 137 15 16 21 17 37 7 11 -7 30 -18 42 -24z m1331 -153
c15 -17 16 -24 7 -45 -13 -29 -38 -32 -64 -8 -21 19 -23 44 -6 61 18 18 43 15
63 -8z m-735 -81 c9 -16 8 -26 -5 -45 -20 -31 -59 -32 -79 -2 -20 28 -20 33 0
52 23 23 71 20 84 -5z m-285 -2 c20 -16 13 -37 -14 -37 -20 0 -41 19 -41 37 0
17 31 17 55 0z"/>
<path d="M9419 1101 c-44 -27 -79 -58 -79 -70 0 -6 -6 -11 -14 -11 -8 0 -26
-15 -40 -32 -15 -18 -31 -39 -37 -46 -16 -19 -5 -38 22 -37 43 3 71 17 109 54
45 44 70 64 70 56 0 -4 13 3 29 14 27 19 28 25 22 77 -2 16 -53 13 -82 -5z"/>
</g>
</svg>
